# xmcd
#
# Track frame offsets: 
#        150
#        12525
#        23757
#        32477
#        43692
#        53267
#        67580
#        74675
#        87925
#        102095
#        115847
#        126587
#        138777
#        151167
#        164377
#        176532
#
# Disc length: 2494 seconds
#
# Revision: 0
# Processed by: cddbd v1.4PL0 Copyright (c) Steve Scherf et al.
# Submitted via: ExactAudioCopy v0.90b2
#
DISCID=c609bc10
DTITLE=Various Artist - Newport Folk Festival - Best of Bluegrass 195
DTITLE=9-66 - Disk 3
DYEAR=1900
DGENRE=Bluegrass
TTITLE0=Jim and Jesse and the Virginia Boys/Alabam'
TTITLE1=Jim and Jesse and the Virginia Boys/Memphis, Tennessee
TTITLE2=Jim and Jesse and the Virginia Boys/Airmail Special
TTITLE3=Jim and Jesse and the Virginia Boys/Better Times A-Comin'
TTITLE4=Jim and Jesse and the Virginia Boys/Bill Cheatham
TTITLE5=Jim and Jesse and the Virginia Boys/The Grave in the Valley
TTITLE6=Jim and Jesse and the Virginia Boys/Sugarfoot Rag
TTITLE7=Hazel Dickens and Alice Gerrard/Walking in My Sleep
TTITLE8=Hazel Dickens and Alice Gerrard/A Tiny Broken Heart
TTITLE9=Hazel Dickens and Alice Gerrard/The One I Love is Gone
TTITLE10=Lester Flatt and Earl Scruggs and the Foggy Mountain Boys/Maiden'
TTITLE10=s Prayer
TTITLE11=Lester Flatt and Earl Scruggs and the Foggy Mountain Boys/Will Yo
TTITLE11=u Be Lonesome Too?
TTITLE12=Lester Flatt and Earl Scruggs and the Foggy Mountain Boys/Foggy M
TTITLE12=ountain Chimes
TTITLE13=Lester Flatt and Earl Scruggs and the Foggy Mountain Boys/Wabash 
TTITLE13=Cannonball
TTITLE14=Lester Flatt and Earl Scruggs and the Foggy Mountain Boys/When th
TTITLE14=e Saints Go Marching In
TTITLE15=Lester Flatt and Earl Scruggs and the Foggy Mountain Boys/The Bal
TTITLE15=lad of Jed Clampett
EXTD=
EXTT0=
EXTT1=
EXTT2=
EXTT3=
EXTT4=
EXTT5=
EXTT6=
EXTT7=
EXTT8=
EXTT9=
EXTT10=
EXTT11=
EXTT12=
EXTT13=
EXTT14=
EXTT15=
PLAYORDER=
